<?xml version="1.0" encoding="utf-8"?>
<!-- Generator: Adobe Illustrator 25.2.1, SVG Export Plug-In . SVG Version: 6.00 Build 0)  -->
<svg version="1.1" id="Capa_1" xmlns="http://www.w3.org/2000/svg" xmlns:xlink="http://www.w3.org/1999/xlink" x="0px" y="0px"
	 viewBox="0 0 74 74.1" style="enable-background:new 0 0 74 74.1;" xml:space="preserve">
<style type="text/css">
	.st0{fill:#AAD8D0;}
	.st1{fill:#E43F12;}
	.st2{fill:none;}
	.st3{fill:#AA1355;}
</style>
<g>
	<circle class="st2" cx="36.8" cy="37.2" r="36.5"/>
</g>
<g>
	<path class="st0" d="M55.6,16.9c0.5,0,0.9,0.4,0.9,1v26.3c0,4.4-0.9,7.8-2.8,10c-1.9,2.2-4.7,3.4-8.4,3.4c-2.1,0-4.1-0.5-6-1.5
		c-1.6-0.9-3-2.1-4-3.7c-0.2-0.4-0.2-0.9,0-1.2l1.8-2.4c0.3-0.5,1-0.4,1.3,0c1.9,2.6,4.2,3.8,6.8,3.8c2,0,3.5-0.7,4.6-2.1
		c1-1.4,1.6-3.4,1.6-6.1V22.8c0-0.5-0.4-1-0.9-1H27.7c-0.5,0-0.9,0.4-0.9,1V56c0,0.5-0.4,1-0.9,1h-3.3c-0.5,0-0.9-0.4-0.9-1V22.8
		c0-0.5-0.4-1-0.9-1H18c-0.5,0-0.9-0.4-0.9-1v-3.1c0-0.5,0.4-1,0.9-1H55.6z"/>
</g>
<g>
	<g>
		<g>
			<path class="st1" d="M29.8,24.9c0.2,4,0.4,7.9,0.6,11.9c0.1,1.1-0.2,3.1,1,3.8c1.2,0.6,2.4-0.6,3.1-1.5c0.3-0.3-0.4-0.5-0.6-0.2
				c-0.5,0.6-1.4,1.8-2.2,1c-0.5-0.4-0.5-1.3-0.5-1.9c-0.1-1.4-0.1-2.9-0.2-4.3c-0.1-3-0.3-5.9-0.4-8.9
				C30.5,24.5,29.8,24.6,29.8,24.9L29.8,24.9z"/>
		</g>
	</g>
	<g>
		<g>
			<path class="st1" d="M39.2,31.7c-0.6-0.7-1.7-0.2-2.3,0.3c-0.9,0.7-1.5,1.8-1.9,2.8c-0.2,0.4-0.5,1.1-0.3,1.6
				c0.2,0.4,0.7,0.4,1.1,0.3c1-0.3,1.8-1.1,2.2-2c0.4-0.9,0.6-2.3,1.6-2.8c-0.2,0-0.4,0.1-0.6,0.1c0.1,1.6,0.4,4.6,2.6,4.7
				c0.2,0,0.4,0,0.5-0.1c0.1-0.1,0.1-0.1,0-0.1c-0.9,0-1.5-0.9-1.8-1.7c-0.4-0.9-0.4-1.9-0.5-2.9c0-0.1-0.6,0.1-0.6,0.1
				c-0.8,0.4-1.1,1.3-1.4,2.1c-0.2,0.5-0.3,0.9-0.6,1.3c-0.2,0.3-0.4,0.5-0.6,0.7c-0.2,0.2-0.4,0.4-0.7,0.5
				c-0.2,0.1-0.4-0.2-0.4-0.4c0-0.3,0.1-0.6,0.2-0.8c0.2-0.5,0.5-1,0.8-1.5c0.3-0.5,0.6-1,1-1.4c0.2-0.2,0.4-0.4,0.6-0.5
				c0.2-0.1,0.5,0,0.6,0.2C38.7,32.1,39.3,31.8,39.2,31.7L39.2,31.7z"/>
		</g>
	</g>
	<g>
		<g>
			<path class="st1" d="M53,29.2c-0.6-0.7-1.7-0.2-2.3,0.3c-0.9,0.7-1.5,1.8-1.9,2.8c-0.2,0.4-0.5,1.1-0.3,1.6
				c0.2,0.4,0.7,0.4,1.1,0.3c1-0.3,1.8-1.1,2.2-2c0.4-0.9,0.6-2.3,1.6-2.8c-0.2,0-0.4,0.1-0.6,0.1c0.1,1.6,0.4,4.6,2.6,4.7
				c0.2,0,0.4,0,0.5-0.1c0.1-0.1,0.1-0.1,0-0.1c-0.9,0-1.5-0.9-1.8-1.7c-0.4-0.9-0.4-1.9-0.5-2.9c0-0.1-0.6,0.1-0.6,0.1
				c-0.8,0.4-1.1,1.3-1.4,2.1c-0.2,0.5-0.3,0.9-0.6,1.3c-0.2,0.3-0.4,0.5-0.6,0.7c-0.2,0.2-0.4,0.4-0.7,0.5
				c-0.2,0.1-0.4-0.2-0.4-0.4c0-0.3,0.1-0.6,0.2-0.8c0.2-0.5,0.5-1,0.8-1.5c0.3-0.5,0.6-1,1-1.4c0.2-0.2,0.4-0.4,0.6-0.5
				c0.2-0.1,0.5,0,0.6,0.2C52.4,29.6,53.1,29.3,53,29.2L53,29.2z"/>
		</g>
	</g>
	<g>
		<g>
			<path class="st1" d="M42.8,31.2c0,1.4,0.5,2.9,1.6,3.9c0.2,0.2,0.6,0.1,0.7-0.2c0.3-1.4-0.2-2.8,0.6-4.1c0.7-1.2,2-1.6,3.3-1.8
				c0.1,0,0.3-0.1,0.3-0.3c0-0.2-0.3-0.1-0.4-0.1c-1.4,0.3-2.8,0.7-3.7,2c-0.4,0.6-0.6,1.3-0.7,2c0,0.8,0.1,1.6-0.1,2.5
				c0.2-0.1,0.5-0.1,0.7-0.2c-1-1-1.5-2.4-1.5-3.8C43.5,30.8,42.8,30.9,42.8,31.2L42.8,31.2z"/>
		</g>
	</g>
	<g>
		<path class="st1" d="M21,35.9c1.9-0.8,3.7-1.5,5.5-2.4c0.5-0.2,0.9-0.5,1.2-0.8c0.4-0.3,0.6-0.7,0.4-1.1C28,31.1,27.5,31,27.1,31
			c-0.5,0-0.9,0.2-1.4,0.3c-3.7,1.4-7.1,3.7-10.1,6.4c-1.5,1.3-2.9,2.8-4.2,4.3c-0.6,0.8-1.2,1.6-1.7,2.4c-0.5,0.8-1,1.7-1.1,2.6
			c-0.1,0.4,0,0.8,0.2,1c0.2,0.2,0.7,0.3,1.1,0.3c1,0,1.9-0.1,2.9-0.3c1.9-0.4,3.9-1,5.8-1.5c3.9-1,7.7-2.2,11.6-3.4
			c3.8-1.2,7.6-2.6,11.5-3.8c3.9-1.2,7.8-2.3,11.7-3.1c4-0.7,8.1-1,12.1-0.4c-4-0.4-8.1,0-12,0.9c-3.9,0.8-7.8,2-11.6,3.3
			c-7.6,2.6-15.2,5.3-23,7.4C17,48,15,48.5,13,48.9c-1,0.2-2.1,0.3-3.1,0.2c-0.5,0-1.2-0.1-1.7-0.5c-0.3-0.2-0.5-0.6-0.5-0.9
			c-0.1-0.3-0.1-0.6,0-0.9c0.2-1.1,0.7-2,1.3-2.9c0.5-0.9,1.2-1.7,1.8-2.5c1.3-1.6,2.8-3,4.3-4.3c3.1-2.6,6.6-4.9,10.4-6.2
			c0.5-0.2,1-0.3,1.6-0.3c0.3,0,0.6,0,0.8,0.2c0.3,0.1,0.5,0.4,0.6,0.6c0.1,0.2,0.2,0.6,0,0.9c-0.1,0.3-0.3,0.5-0.5,0.6
			c-0.4,0.3-0.9,0.6-1.3,0.8C24.8,34.5,22.9,35.2,21,35.9z"/>
	</g>
</g>
</svg>
