<?xml version="1.0" encoding="utf-8"?>
<!-- Generator: Adobe Illustrator 25.2.1, SVG Export Plug-In . SVG Version: 6.00 Build 0)  -->
<svg version="1.1" id="Capa_1" xmlns="http://www.w3.org/2000/svg" xmlns:xlink="http://www.w3.org/1999/xlink" x="0px" y="0px"
	 viewBox="0 0 65.3 40.6" style="enable-background:new 0 0 65.3 40.6;" xml:space="preserve">
<style type="text/css">
	.st0{fill:#AAD8D0;}
	.st1{fill:#E43F12;}
	.st2{fill:#AA1355;}
</style>
<g>
	<g>
		<path class="st0" d="M43.7,0c0.5,0,0.9,0.4,0.9,1v26.3c0,4.4-0.9,7.8-2.8,10c-1.9,2.2-4.7,3.4-8.4,3.4c-2.1,0-4.1-0.5-6-1.5
			c-1.6-0.9-3-2.1-4-3.7c-0.2-0.4-0.2-0.9,0-1.2l1.8-2.4c0.3-0.5,1-0.4,1.3,0c1.9,2.6,4.2,3.8,6.8,3.8c2,0,3.5-0.7,4.6-2.1
			c1-1.4,1.6-3.4,1.6-6.1V5.9c0-0.5-0.4-1-0.9-1H15.8c-0.5,0-0.9,0.4-0.9,1v33.2c0,0.5-0.4,1-0.9,1h-3.3c-0.5,0-0.9-0.4-0.9-1V5.9
			c0-0.5-0.4-1-0.9-1H6.1C5.6,5,5.2,4.6,5.2,4V1c0-0.5,0.4-1,0.9-1H43.7z"/>
	</g>
	<g>
		<g>
			<g>
				<path class="st2" d="M22.2,8.1c0.2,4,0.4,7.9,0.6,11.9c0.1,1.1-0.2,3.4,1.2,3.7c1.2,0.3,2.2-0.8,3-1.6c0.2-0.2-0.5-0.1-0.7,0
					c-0.5,0.6-1.7,1.9-2.4,0.7c-0.2-0.5-0.3-1-0.3-1.5c-0.1-1.5-0.1-2.9-0.2-4.4c-0.1-3-0.3-6-0.4-9C22.9,7.8,22.1,7.9,22.2,8.1
					L22.2,8.1z"/>
			</g>
		</g>
		<g>
			<g>
				<path class="st2" d="M31.6,14.8c-0.6-0.8-1.8-0.1-2.4,0.4c-0.8,0.7-1.4,1.8-1.9,2.8c-0.2,0.4-0.5,1-0.3,1.5
					c0.2,0.4,0.7,0.4,1.1,0.3c1-0.3,1.8-1.1,2.2-2c0.2-0.5,0.4-1,0.6-1.5c0.2-0.5,0.4-1,0.9-1.3c-0.2,0-0.4,0-0.6,0
					c0.1,1.1,0.2,2.2,0.7,3.2c0.4,0.8,1,1.4,2,1.5c0.2,0,0.4,0,0.5-0.1c0.1-0.1,0.1-0.2-0.1-0.2c-0.9,0-1.5-0.9-1.8-1.6
					c-0.4-0.9-0.4-1.9-0.5-2.9c0-0.2-0.5,0-0.6,0c-0.8,0.5-1.1,1.3-1.4,2.1c-0.2,0.5-0.4,0.9-0.6,1.4c-0.3,0.4-0.7,0.9-1.2,1.1
					c-0.7,0.3-0.4-1-0.2-1.3c0.2-0.5,0.5-1,0.8-1.5c0.3-0.5,0.6-1,1-1.4c0.2-0.2,0.4-0.4,0.7-0.5c0.2-0.1,0.4,0,0.5,0.2
					C31,15.2,31.7,15,31.6,14.8L31.6,14.8z"/>
			</g>
		</g>
		<g>
			<g>
				<path class="st2" d="M45.4,12.3c-0.6-0.8-1.8-0.1-2.4,0.4c-0.8,0.7-1.4,1.8-1.9,2.8c-0.2,0.4-0.5,1-0.3,1.5
					c0.2,0.4,0.7,0.4,1.1,0.3c1-0.3,1.8-1.1,2.2-2c0.2-0.5,0.4-1,0.6-1.5c0.2-0.5,0.4-1,0.9-1.3c-0.2,0-0.4,0-0.6,0
					c0.1,1.1,0.2,2.2,0.7,3.2c0.4,0.8,1,1.4,2,1.5c0.2,0,0.4,0,0.5-0.1c0.1-0.1,0.1-0.2-0.1-0.2c-0.9,0-1.5-0.9-1.8-1.6
					c-0.4-0.9-0.4-1.9-0.5-2.9c0-0.2-0.5,0-0.6,0c-0.8,0.5-1.1,1.3-1.4,2.1c-0.2,0.5-0.4,0.9-0.6,1.4c-0.3,0.4-0.7,0.9-1.2,1.1
					c-0.7,0.3-0.4-1-0.2-1.3c0.2-0.5,0.5-1,0.8-1.5c0.3-0.5,0.6-1,1-1.4c0.2-0.2,0.4-0.4,0.7-0.5c0.2-0.1,0.4,0,0.5,0.2
					C44.8,12.7,45.5,12.5,45.4,12.3L45.4,12.3z"/>
			</g>
		</g>
		<g>
			<g>
				<path class="st2" d="M35.2,14.3c0,1.4,0.5,2.9,1.6,3.9c0.1,0.1,0.7-0.1,0.7-0.2c0.3-1.3-0.1-2.8,0.5-4c0.3-0.5,0.7-1,1.2-1.3
					c0.6-0.4,1.3-0.5,2-0.7c0.1,0,0.4-0.1,0.4-0.2c0-0.1-0.2-0.1-0.3-0.1c-1.4,0.3-2.8,0.7-3.8,1.9c-0.4,0.6-0.7,1.2-0.7,1.9
					c-0.1,0.8,0.1,1.7-0.1,2.5c0.2-0.1,0.5-0.1,0.7-0.2c-1-1-1.5-2.4-1.5-3.9C35.9,14,35.2,14.1,35.2,14.3L35.2,14.3z"/>
			</g>
		</g>
		<g>
			<path class="st2" d="M13.4,19c2-0.8,4-1.6,5.9-2.7c0.5-0.3,0.9-0.5,1.3-0.9c0.2-0.2,0.3-0.4,0.2-0.6c0-0.2-0.2-0.3-0.4-0.4
				c-0.5-0.1-1-0.1-1.5,0c-0.5,0.1-1,0.2-1.5,0.4C13.3,16.6,9.7,19,6.6,22c-1.5,1.5-3,3.1-4.2,4.9c-0.6,0.9-1.1,1.8-1.4,2.8
				c-0.1,0.5-0.2,1,0,1.3c0.1,0.3,0.5,0.4,1,0.5c2,0,4.2-0.5,6.3-1c2.1-0.5,4.2-1.1,6.2-1.8c4.2-1.2,8.2-2.7,12.5-3.8
				c4.2-1.1,8.4-2.3,12.6-3.3c4.2-1,8.5-1.9,12.8-2.5c4.3-0.6,8.7-0.9,13-0.4c-4.3-0.3-8.7,0.2-12.9,0.9c-4.3,0.7-8.5,1.7-12.7,2.8
				c-4.2,1.1-8.3,2.3-12.5,3.4c-4.1,1.1-8.2,2.6-12.4,3.9c-2.1,0.6-4.2,1.2-6.3,1.7c-2.1,0.5-4.2,1-6.6,1c-0.3,0-0.6-0.1-0.9-0.2
				c-0.3-0.1-0.6-0.4-0.8-0.7c-0.3-0.7-0.2-1.4,0-1.9c0.4-1.1,0.9-2.1,1.6-3c1.2-1.8,2.8-3.4,4.4-4.9c3.2-3,6.9-5.4,11-7.1
				c0.5-0.2,1.1-0.3,1.6-0.4c0.6-0.1,1.1-0.1,1.7,0c0.3,0.1,0.6,0.3,0.7,0.7c0.1,0.4-0.2,0.7-0.3,0.9c-0.4,0.4-0.9,0.7-1.4,0.9
				C17.5,17.6,15.4,18.3,13.4,19z"/>
		</g>
	</g>
</g>
</svg>
